<svg xmlns="http://www.w3.org/2000/svg" xmlns:xlink="http://www.w3.org/1999/xlink" width="500" zoomAndPan="magnify" viewBox="0 0 375 374.999991" height="500" preserveAspectRatio="xMidYMid meet" version="1.0"><defs><g/><clipPath id="aca8403570"><path d="M 8.652344 190.328125 L 375 190.328125 L 375 219.578125 L 8.652344 219.578125 Z M 8.652344 190.328125 " clip-rule="nonzero"/></clipPath></defs><rect x="-37.5" width="450" fill="#ffffff" y="-37.499999" height="449.999989" fill-opacity="1"/><rect x="-37.5" width="450" fill="#ffffff" y="-37.499999" height="449.999989" fill-opacity="1"/><rect x="-37.5" width="450" fill="#fdf5f3" y="-37.499999" height="449.999989" fill-opacity="1"/><g fill="#000000" fill-opacity="1"><g transform="translate(84.480298, 245.349479)"><g><path d="M 3.21875 -80.046875 L 3.21875 -84.734375 L 63.640625 -84.734375 L 63.640625 -80.046875 L 36.921875 -80.046875 L 36.921875 0 L 32.296875 0 L 32.296875 -80.046875 Z M 3.21875 -80.046875 "/></g></g></g><g fill="#000000" fill-opacity="1"><g transform="translate(146.303659, 245.349479)"><g><path d="M 12.890625 0 L 12.890625 -84.734375 L 39.03125 -84.734375 C 44.96875 -84.734375 50.226562 -83.765625 54.8125 -81.828125 C 59.40625 -79.898438 63 -77.019531 65.59375 -73.1875 C 68.195312 -69.363281 69.5 -64.617188 69.5 -58.953125 C 69.5 -53.285156 68.21875 -48.476562 65.65625 -44.53125 C 63.101562 -40.59375 59.585938 -37.597656 55.109375 -35.546875 C 50.640625 -33.492188 45.515625 -32.46875 39.734375 -32.46875 L 17.9375 -32.46875 L 17.9375 0 Z M 17.9375 -37.5 L 39.734375 -37.5 C 47.078125 -37.5 53.015625 -39.375 57.546875 -43.125 C 62.078125 -46.875 64.34375 -52.269531 64.34375 -59.3125 C 64.34375 -66.34375 62.035156 -71.515625 57.421875 -74.828125 C 52.816406 -78.148438 46.644531 -79.8125 38.90625 -79.8125 L 17.9375 -79.8125 Z M 17.9375 -37.5 "/></g></g></g><g fill="#000000" fill-opacity="1"><g transform="translate(213.987062, 245.349479)"><g><path d="M 38.625 1.171875 C 34.832031 1.171875 31.207031 0.691406 27.75 -0.265625 C 24.289062 -1.222656 21.171875 -2.628906 18.390625 -4.484375 C 15.617188 -6.335938 13.304688 -8.617188 11.453125 -11.328125 C 9.597656 -14.046875 8.359375 -17.1875 7.734375 -20.75 L 12.890625 -20.75 C 13.753906 -16.914062 15.441406 -13.707031 17.953125 -11.125 C 20.472656 -8.550781 23.53125 -6.617188 27.125 -5.328125 C 30.726562 -4.046875 34.5625 -3.40625 38.625 -3.40625 C 43.46875 -3.40625 47.722656 -4.132812 51.390625 -5.59375 C 55.066406 -7.0625 57.945312 -9.082031 60.03125 -11.65625 C 62.125 -14.238281 63.171875 -17.191406 63.171875 -20.515625 C 63.171875 -23.515625 62.644531 -26.1875 61.59375 -28.53125 C 60.539062 -30.882812 58.910156 -32.878906 56.703125 -34.515625 C 54.492188 -36.160156 51.609375 -37.429688 48.046875 -38.328125 L 29.53125 -43.015625 C 23.394531 -44.578125 18.664062 -46.929688 15.34375 -50.078125 C 12.03125 -53.222656 10.375 -57.316406 10.375 -62.359375 C 10.375 -66.804688 11.523438 -70.796875 13.828125 -74.328125 C 16.128906 -77.867188 19.359375 -80.664062 23.515625 -82.71875 C 27.679688 -84.769531 32.5625 -85.796875 38.15625 -85.796875 C 44.4375 -85.796875 49.675781 -84.628906 53.875 -82.296875 C 58.082031 -79.972656 61.25 -77.015625 63.375 -73.421875 C 65.507812 -69.828125 66.554688 -66.140625 66.515625 -62.359375 L 61.359375 -62.359375 C 60.929688 -67.046875 59.550781 -70.742188 57.21875 -73.453125 C 54.894531 -76.171875 52.039062 -78.101562 48.65625 -79.25 C 45.28125 -80.40625 41.71875 -80.984375 37.96875 -80.984375 C 35.46875 -80.984375 32.890625 -80.617188 30.234375 -79.890625 C 27.578125 -79.171875 25.113281 -78.0625 22.84375 -76.5625 C 20.582031 -75.0625 18.75 -73.144531 17.34375 -70.8125 C 15.9375 -68.488281 15.234375 -65.707031 15.234375 -62.46875 C 15.234375 -58.832031 16.503906 -55.863281 19.046875 -53.5625 C 21.585938 -51.257812 26.097656 -49.25 32.578125 -47.53125 L 50.34375 -42.84375 C 53.625 -41.976562 56.394531 -40.789062 58.65625 -39.28125 C 60.925781 -37.78125 62.753906 -36.050781 64.140625 -34.09375 C 65.523438 -32.144531 66.53125 -30.035156 67.15625 -27.765625 C 67.78125 -25.503906 68.09375 -23.164062 68.09375 -20.75 C 68.09375 -16.757812 67 -13.101562 64.8125 -9.78125 C 62.625 -6.46875 59.351562 -3.8125 55 -1.8125 C 50.644531 0.175781 45.1875 1.171875 38.625 1.171875 Z M 38.625 1.171875 "/></g></g></g><g clip-path="url(#aca8403570)"><path fill="#fdf5f3" d="M 8.671875 190.328125 L 383.632812 190.328125 L 383.632812 219.578125 L 8.671875 219.578125 L 8.671875 190.328125 " fill-opacity="1" fill-rule="nonzero"/></g><g fill="#000000" fill-opacity="1"><g transform="translate(42.911564, 210.396757)"><g><path d="M 0.484375 -13.53125 L 0.484375 -15.328125 L 12.078125 -15.328125 L 12.078125 -13.53125 L 7.40625 -13.53125 L 7.40625 0 L 5.4375 0 L 5.4375 -13.53125 Z M 0.484375 -13.53125 "/></g></g></g><g fill="#000000" fill-opacity="1"><g transform="translate(58.681307, 210.396757)"><g><path d="M 12.25 -7.078125 L 3.984375 -7.078125 L 3.984375 0 L 2.03125 0 L 2.03125 -15.328125 L 3.984375 -15.328125 L 3.984375 -8.796875 L 12.25 -8.796875 L 12.25 -15.328125 L 14.21875 -15.328125 L 14.21875 0 L 12.25 0 Z M 12.25 -7.078125 "/></g></g></g><g fill="#000000" fill-opacity="1"><g transform="translate(78.109642, 210.396757)"><g><path d="M 2.03125 0 L 2.03125 -15.328125 L 11.6875 -15.328125 L 11.6875 -13.609375 L 4 -13.609375 L 4 -8.59375 L 10.921875 -8.59375 L 10.921875 -6.875 L 3.984375 -6.875 L 3.984375 -1.765625 L 11.890625 -1.75 L 11.890625 0 Z M 2.03125 0 "/></g></g></g><g fill="#000000" fill-opacity="1"><g transform="translate(94.452035, 210.396757)"><g/></g></g><g fill="#000000" fill-opacity="1"><g transform="translate(102.522813, 210.396757)"><g><path d="M 2.03125 0 L 2.03125 -15.328125 L 7.203125 -15.328125 C 8.304688 -15.328125 9.285156 -15.144531 10.140625 -14.78125 C 10.992188 -14.414062 11.664062 -13.867188 12.15625 -13.140625 C 12.644531 -12.421875 12.890625 -11.535156 12.890625 -10.484375 C 12.890625 -9.460938 12.660156 -8.59375 12.203125 -7.875 C 11.753906 -7.15625 11.117188 -6.609375 10.296875 -6.234375 C 9.484375 -5.859375 8.539062 -5.671875 7.46875 -5.671875 L 4.046875 -5.671875 L 4.046875 0 Z M 4.03125 -7.328125 L 7.4375 -7.328125 C 8.488281 -7.328125 9.34375 -7.617188 10 -8.203125 C 10.65625 -8.785156 10.984375 -9.582031 10.984375 -10.59375 C 10.984375 -11.613281 10.644531 -12.382812 9.96875 -12.90625 C 9.289062 -13.4375 8.414062 -13.703125 7.34375 -13.703125 L 4.03125 -13.703125 Z M 4.03125 -7.328125 "/></g></g></g><g fill="#000000" fill-opacity="1"><g transform="translate(119.204554, 210.396757)"><g><path d="M 13.234375 -5.296875 C 13.234375 -4.117188 13.035156 -3.117188 12.640625 -2.296875 C 12.253906 -1.484375 11.648438 -0.859375 10.828125 -0.421875 C 10.003906 0.00390625 8.9375 0.21875 7.625 0.21875 C 6.289062 0.21875 5.210938 0 4.390625 -0.4375 C 3.566406 -0.882812 2.96875 -1.53125 2.59375 -2.375 C 2.21875 -3.21875 2.03125 -4.257812 2.03125 -5.5 L 2.03125 -15.328125 L 4.0625 -15.328125 L 4.0625 -5.203125 C 4.0625 -3.960938 4.367188 -3.035156 4.984375 -2.421875 C 5.597656 -1.804688 6.476562 -1.5 7.625 -1.5 C 8.394531 -1.5 9.050781 -1.632812 9.59375 -1.90625 C 10.132812 -2.175781 10.546875 -2.582031 10.828125 -3.125 C 11.117188 -3.675781 11.265625 -4.367188 11.265625 -5.203125 L 11.265625 -15.328125 L 13.234375 -15.328125 Z M 13.234375 -5.296875 "/></g></g></g><g fill="#000000" fill-opacity="1"><g transform="translate(137.243688, 210.396757)"><g><path d="M 12.984375 0 L 10.90625 0 L 8.109375 -6.609375 L 3.984375 -6.609375 L 3.984375 0 L 2.03125 0 L 2.03125 -15.328125 L 7.96875 -15.328125 C 9.0625 -15.328125 9.976562 -15.160156 10.71875 -14.828125 C 11.46875 -14.492188 12.023438 -14.015625 12.390625 -13.390625 C 12.753906 -12.765625 12.9375 -12.015625 12.9375 -11.140625 C 12.9375 -10.304688 12.789062 -9.613281 12.5 -9.0625 C 12.207031 -8.507812 11.832031 -8.066406 11.375 -7.734375 C 10.925781 -7.398438 10.457031 -7.140625 9.96875 -6.953125 Z M 7.328125 -8.234375 C 8.472656 -8.234375 9.359375 -8.46875 9.984375 -8.9375 C 10.617188 -9.40625 10.9375 -10.101562 10.9375 -11.03125 C 10.9375 -11.925781 10.65625 -12.597656 10.09375 -13.046875 C 9.53125 -13.503906 8.765625 -13.734375 7.796875 -13.734375 L 3.984375 -13.734375 L 3.984375 -8.234375 Z M 7.328125 -8.234375 "/></g></g></g><g fill="#000000" fill-opacity="1"><g transform="translate(154.773802, 210.396757)"><g><path d="M 2.03125 0 L 2.03125 -15.328125 L 7.203125 -15.328125 C 8.304688 -15.328125 9.285156 -15.144531 10.140625 -14.78125 C 10.992188 -14.414062 11.664062 -13.867188 12.15625 -13.140625 C 12.644531 -12.421875 12.890625 -11.535156 12.890625 -10.484375 C 12.890625 -9.460938 12.660156 -8.59375 12.203125 -7.875 C 11.753906 -7.15625 11.117188 -6.609375 10.296875 -6.234375 C 9.484375 -5.859375 8.539062 -5.671875 7.46875 -5.671875 L 4.046875 -5.671875 L 4.046875 0 Z M 4.03125 -7.328125 L 7.4375 -7.328125 C 8.488281 -7.328125 9.34375 -7.617188 10 -8.203125 C 10.65625 -8.785156 10.984375 -9.582031 10.984375 -10.59375 C 10.984375 -11.613281 10.644531 -12.382812 9.96875 -12.90625 C 9.289062 -13.4375 8.414062 -13.703125 7.34375 -13.703125 L 4.03125 -13.703125 Z M 4.03125 -7.328125 "/></g></g></g><g fill="#000000" fill-opacity="1"><g transform="translate(171.455549, 210.396757)"><g><path d="M 2.03125 -15.328125 L 4.046875 -15.328125 L 4.046875 -1.765625 L 11.28125 -1.765625 L 11.28125 0 L 2.03125 0 Z M 2.03125 -15.328125 "/></g></g></g><g fill="#000000" fill-opacity="1"><g transform="translate(186.885943, 210.396757)"><g><path d="M 2.03125 0 L 2.03125 -15.328125 L 11.6875 -15.328125 L 11.6875 -13.609375 L 4 -13.609375 L 4 -8.59375 L 10.921875 -8.59375 L 10.921875 -6.875 L 3.984375 -6.875 L 3.984375 -1.765625 L 11.890625 -1.75 L 11.890625 0 Z M 2.03125 0 "/></g></g></g><g fill="#000000" fill-opacity="1"><g transform="translate(203.228335, 210.396757)"><g/></g></g><g fill="#000000" fill-opacity="1"><g transform="translate(211.299108, 210.396757)"><g><path d="M 7.234375 0.21875 C 6.515625 0.21875 5.8125 0.128906 5.125 -0.046875 C 4.445312 -0.234375 3.832031 -0.503906 3.28125 -0.859375 C 2.726562 -1.222656 2.269531 -1.671875 1.90625 -2.203125 C 1.550781 -2.742188 1.328125 -3.367188 1.234375 -4.078125 L 3.28125 -4.078125 C 3.414062 -3.492188 3.671875 -3.003906 4.046875 -2.609375 C 4.421875 -2.210938 4.878906 -1.914062 5.421875 -1.71875 C 5.972656 -1.519531 6.570312 -1.421875 7.21875 -1.421875 C 7.9375 -1.421875 8.582031 -1.519531 9.15625 -1.71875 C 9.726562 -1.925781 10.175781 -2.21875 10.5 -2.59375 C 10.832031 -2.96875 11 -3.414062 11 -3.9375 C 11 -4.394531 10.894531 -4.789062 10.6875 -5.125 C 10.476562 -5.46875 10.175781 -5.75 9.78125 -5.96875 C 9.382812 -6.195312 8.898438 -6.378906 8.328125 -6.515625 L 5.328125 -7.203125 C 4.191406 -7.453125 3.300781 -7.894531 2.65625 -8.53125 C 2.019531 -9.164062 1.695312 -10.007812 1.6875 -11.0625 C 1.6875 -11.9375 1.921875 -12.707031 2.390625 -13.375 C 2.859375 -14.050781 3.503906 -14.578125 4.328125 -14.953125 C 5.148438 -15.328125 6.09375 -15.515625 7.15625 -15.515625 C 8.375 -15.515625 9.398438 -15.304688 10.234375 -14.890625 C 11.066406 -14.472656 11.695312 -13.925781 12.125 -13.25 C 12.550781 -12.570312 12.769531 -11.847656 12.78125 -11.078125 L 10.75 -11.078125 C 10.6875 -11.773438 10.484375 -12.328125 10.140625 -12.734375 C 9.796875 -13.140625 9.363281 -13.425781 8.84375 -13.59375 C 8.332031 -13.769531 7.773438 -13.859375 7.171875 -13.859375 C 6.734375 -13.859375 6.3125 -13.800781 5.90625 -13.6875 C 5.5 -13.582031 5.132812 -13.421875 4.8125 -13.203125 C 4.488281 -12.984375 4.226562 -12.707031 4.03125 -12.375 C 3.84375 -12.050781 3.75 -11.675781 3.75 -11.25 C 3.75 -10.695312 3.9375 -10.242188 4.3125 -9.890625 C 4.695312 -9.546875 5.382812 -9.253906 6.375 -9.015625 L 9.296875 -8.3125 C 10.054688 -8.144531 10.675781 -7.898438 11.15625 -7.578125 C 11.644531 -7.265625 12.019531 -6.90625 12.28125 -6.5 C 12.550781 -6.101562 12.738281 -5.6875 12.84375 -5.25 C 12.945312 -4.8125 13 -4.378906 13 -3.953125 C 13 -3.179688 12.769531 -2.476562 12.3125 -1.84375 C 11.851562 -1.21875 11.191406 -0.71875 10.328125 -0.34375 C 9.472656 0.03125 8.441406 0.21875 7.234375 0.21875 Z M 7.234375 0.21875 "/></g></g></g><g fill="#000000" fill-opacity="1"><g transform="translate(228.765591, 210.396757)"><g><path d="M 13.234375 -5.296875 C 13.234375 -4.117188 13.035156 -3.117188 12.640625 -2.296875 C 12.253906 -1.484375 11.648438 -0.859375 10.828125 -0.421875 C 10.003906 0.00390625 8.9375 0.21875 7.625 0.21875 C 6.289062 0.21875 5.210938 0 4.390625 -0.4375 C 3.566406 -0.882812 2.96875 -1.53125 2.59375 -2.375 C 2.21875 -3.21875 2.03125 -4.257812 2.03125 -5.5 L 2.03125 -15.328125 L 4.0625 -15.328125 L 4.0625 -5.203125 C 4.0625 -3.960938 4.367188 -3.035156 4.984375 -2.421875 C 5.597656 -1.804688 6.476562 -1.5 7.625 -1.5 C 8.394531 -1.5 9.050781 -1.632812 9.59375 -1.90625 C 10.132812 -2.175781 10.546875 -2.582031 10.828125 -3.125 C 11.117188 -3.675781 11.265625 -4.367188 11.265625 -5.203125 L 11.265625 -15.328125 L 13.234375 -15.328125 Z M 13.234375 -5.296875 "/></g></g></g><g fill="#000000" fill-opacity="1"><g transform="translate(246.804718, 210.396757)"><g><path d="M 12 -15.328125 L 13.96875 -15.328125 L 13.96875 0 L 12.21875 0 L 3.984375 -12.078125 L 3.984375 0 L 2.03125 0 L 2.03125 -15.328125 L 3.90625 -15.328125 L 12 -3.40625 Z M 12 -15.328125 "/></g></g></g><g fill="#000000" fill-opacity="1"><g transform="translate(265.978541, 210.396757)"><g><path d="M 7.234375 0.21875 C 6.515625 0.21875 5.8125 0.128906 5.125 -0.046875 C 4.445312 -0.234375 3.832031 -0.503906 3.28125 -0.859375 C 2.726562 -1.222656 2.269531 -1.671875 1.90625 -2.203125 C 1.550781 -2.742188 1.328125 -3.367188 1.234375 -4.078125 L 3.28125 -4.078125 C 3.414062 -3.492188 3.671875 -3.003906 4.046875 -2.609375 C 4.421875 -2.210938 4.878906 -1.914062 5.421875 -1.71875 C 5.972656 -1.519531 6.570312 -1.421875 7.21875 -1.421875 C 7.9375 -1.421875 8.582031 -1.519531 9.15625 -1.71875 C 9.726562 -1.925781 10.175781 -2.21875 10.5 -2.59375 C 10.832031 -2.96875 11 -3.414062 11 -3.9375 C 11 -4.394531 10.894531 -4.789062 10.6875 -5.125 C 10.476562 -5.46875 10.175781 -5.75 9.78125 -5.96875 C 9.382812 -6.195312 8.898438 -6.378906 8.328125 -6.515625 L 5.328125 -7.203125 C 4.191406 -7.453125 3.300781 -7.894531 2.65625 -8.53125 C 2.019531 -9.164062 1.695312 -10.007812 1.6875 -11.0625 C 1.6875 -11.9375 1.921875 -12.707031 2.390625 -13.375 C 2.859375 -14.050781 3.503906 -14.578125 4.328125 -14.953125 C 5.148438 -15.328125 6.09375 -15.515625 7.15625 -15.515625 C 8.375 -15.515625 9.398438 -15.304688 10.234375 -14.890625 C 11.066406 -14.472656 11.695312 -13.925781 12.125 -13.25 C 12.550781 -12.570312 12.769531 -11.847656 12.78125 -11.078125 L 10.75 -11.078125 C 10.6875 -11.773438 10.484375 -12.328125 10.140625 -12.734375 C 9.796875 -13.140625 9.363281 -13.425781 8.84375 -13.59375 C 8.332031 -13.769531 7.773438 -13.859375 7.171875 -13.859375 C 6.734375 -13.859375 6.3125 -13.800781 5.90625 -13.6875 C 5.5 -13.582031 5.132812 -13.421875 4.8125 -13.203125 C 4.488281 -12.984375 4.226562 -12.707031 4.03125 -12.375 C 3.84375 -12.050781 3.75 -11.675781 3.75 -11.25 C 3.75 -10.695312 3.9375 -10.242188 4.3125 -9.890625 C 4.695312 -9.546875 5.382812 -9.253906 6.375 -9.015625 L 9.296875 -8.3125 C 10.054688 -8.144531 10.675781 -7.898438 11.15625 -7.578125 C 11.644531 -7.265625 12.019531 -6.90625 12.28125 -6.5 C 12.550781 -6.101562 12.738281 -5.6875 12.84375 -5.25 C 12.945312 -4.8125 13 -4.378906 13 -3.953125 C 13 -3.179688 12.769531 -2.476562 12.3125 -1.84375 C 11.851562 -1.21875 11.191406 -0.71875 10.328125 -0.34375 C 9.472656 0.03125 8.441406 0.21875 7.234375 0.21875 Z M 7.234375 0.21875 "/></g></g></g><g fill="#000000" fill-opacity="1"><g transform="translate(283.445024, 210.396757)"><g><path d="M 2.03125 0 L 2.03125 -15.328125 L 11.6875 -15.328125 L 11.6875 -13.609375 L 4 -13.609375 L 4 -8.59375 L 10.921875 -8.59375 L 10.921875 -6.875 L 3.984375 -6.875 L 3.984375 -1.765625 L 11.890625 -1.75 L 11.890625 0 Z M 2.03125 0 "/></g></g></g><g fill="#000000" fill-opacity="1"><g transform="translate(299.787429, 210.396757)"><g><path d="M 0.484375 -13.53125 L 0.484375 -15.328125 L 12.078125 -15.328125 L 12.078125 -13.53125 L 7.40625 -13.53125 L 7.40625 0 L 5.4375 0 L 5.4375 -13.53125 Z M 0.484375 -13.53125 "/></g></g></g></svg>